<svg width="33" height="37" viewBox="0 0 33 37" fill="none" xmlns="http://www.w3.org/2000/svg">
<path d="M21.0277 5.07654L21.774 4.41093V4.41093L21.0277 5.07654ZM27.0973 11.8818L27.8436 11.2162L27.0973 11.8818ZM13.75 5.625H20.0555V3.625H13.75V5.625ZM26.5 12.9719V23.125H28.5V12.9719H26.5ZM20.2814 5.74216L26.351 12.5474L27.8436 11.2162L21.774 4.41093L20.2814 5.74216ZM28.5 12.9719C28.5 12.3324 28.2745 11.6993 27.8436 11.2162L26.351 12.5474C26.4358 12.6425 26.5 12.7937 26.5 12.9719H28.5ZM20.0555 5.625C20.1156 5.625 20.1999 5.65078 20.2814 5.74216L21.774 4.41093C21.3398 3.92407 20.7247 3.625 20.0555 3.625V5.625ZM13.75 25.2083C12.888 25.2083 12 24.3862 12 23.125H10C10 25.2695 11.5744 27.2083 13.75 27.2083V25.2083ZM24.75 27.2083C26.9256 27.2083 28.5 25.2695 28.5 23.125H26.5C26.5 24.3862 25.612 25.2083 24.75 25.2083V27.2083ZM12 7.70833C12 6.44709 12.888 5.625 13.75 5.625V3.625C11.5744 3.625 10 5.56382 10 7.70833H12ZM8.25 33.375H20V31.375H8.25V33.375ZM4.5 12.7917V29.2917H6.5V12.7917H4.5ZM8.25 31.375C7.388 31.375 6.5 30.5529 6.5 29.2917H4.5C4.5 31.4362 6.07443 33.375 8.25 33.375V31.375ZM12 23.125V10.7917H10V23.125H12ZM12 10.7917V7.70833H10V10.7917H12ZM7.5 11.7917H11V9.79167H7.5V11.7917ZM24.75 25.2083H22V27.2083H24.75V25.2083ZM22 25.2083H13.75V27.2083H22V25.2083ZM23 30.375V26.2083H21V30.375H23ZM6.5 12.7917C6.5 12.2394 6.94772 11.7917 7.5 11.7917V9.79167C5.84315 9.79167 4.5 11.1348 4.5 12.7917H6.5ZM20 33.375C21.6569 33.375 23 32.0319 23 30.375H21C21 30.9273 20.5523 31.375 20 31.375V33.375Z" fill="black"/>
</svg>
