<svg width="178" height="149" viewBox="0 0 178 149" fill="none" xmlns="http://www.w3.org/2000/svg">
<path d="M90.0001 24.8333C90.0001 24.2811 89.5524 23.8333 89.0001 23.8333C88.4478 23.8333 88.0001 24.2811 88.0001 24.8333H90.0001ZM88.0001 124.167C88.0001 124.719 88.4478 125.167 89.0001 125.167C89.5524 125.167 90.0001 124.719 90.0001 124.167H88.0001ZM148.333 75.5C148.886 75.5 149.333 75.0523 149.333 74.5C149.333 73.9477 148.886 73.5 148.333 73.5V75.5ZM29.6667 73.5C29.1145 73.5 28.6667 73.9477 28.6667 74.5C28.6667 75.0523 29.1145 75.5 29.6667 75.5L29.6667 73.5ZM88.0001 24.8333V124.167H90.0001V24.8333H88.0001ZM148.333 73.5L29.6667 73.5L29.6667 75.5L148.333 75.5V73.5Z" fill="#0F172A"/>
</svg>
